<svg xmlns="http://www.w3.org/2000/svg" width="1200" height="700" viewBox="0 0 1200 700"><rect width="100%" height="100%" fill="white"/><defs><marker id="a" markerWidth="8" markerHeight="8" refX="7" refY="4" orient="auto"><path d="M0,0 L8,4 L0,8 z" fill="#111"/></marker></defs><g font-family="Noto Sans CJK SC,Microsoft YaHei,SimSun,sans-serif" fill="#111"><text x="600" y="35" text-anchor="middle" font-size="22" font-weight="700">基于健康状态建模与KG-GCN的燃煤机组汽轮机系统故障诊断总体框架</text><g stroke="#111" stroke-width="1.3"><rect x="55" y="90" width="230" height="86" fill="#eeeeee"/><rect x="355" y="90" width="230" height="86" fill="#d7d7d7"/><rect x="655" y="90" width="230" height="86" fill="#eeeeee"/><rect x="955" y="90" width="190" height="86" fill="#d7d7d7"/><rect x="55" y="285" width="230" height="86" fill="#eeeeee"/><rect x="355" y="285" width="230" height="86" fill="#d7d7d7"/><rect x="655" y="285" width="230" height="86" fill="#eeeeee"/><rect x="955" y="285" width="190" height="86" fill="#d7d7d7"/><rect x="355" y="500" width="230" height="86" fill="#eeeeee"/><rect x="655" y="500" width="230" height="86" fill="#d7d7d7"/><rect x="955" y="500" width="190" height="86" fill="#eeeeee"/></g><g stroke="#111" fill="none" marker-end="url(#a)" stroke-width="1.5"><path d="M285 133 L355 133"/><path d="M585 133 L655 133"/><path d="M885 133 L955 133"/><path d="M285 328 L355 328"/><path d="M585 328 L655 328"/><path d="M885 328 L955 328"/><path d="M1050 176 L1050 285"/><path d="M1050 371 L1050 500"/><path d="M955 543 L885 543"/><path d="M655 543 L585 543"/></g><g font-size="17" text-anchor="middle"><text x="170" y="122"><tspan x="170">真实健康DCS数据</tspan><tspan x="170" dy="25">设备边界与操作量</tspan></text><text x="470" y="122"><tspan x="470">设备级U+B→Y建模</tspan><tspan x="470" dy="25">GRU健康状态模型</tspan></text><text x="770" y="122"><tspan x="770">动态健康参考</tspan><tspan x="770" dy="25">实测值−预测值</tspan></text><text x="1050" y="122"><tspan x="1050">状态残差窗口</tspan><tspan x="1050" dy="25">参数×时间</tspan></text><text x="170" y="317"><tspan x="170">DCS点表 / 设备IO</tspan><tspan x="170" dy="25">系统边界资料</tspan></text><text x="470" y="317"><tspan x="470">论文 / 标准 / 事件</tspan><tspan x="470" dy="25">故障机理知识</tspan></text><text x="770" y="317"><tspan x="770">LLM候选抽取</tspan><tspan x="770" dy="25">规则+证据+Embedding校核</tspan></text><text x="1050" y="317"><tspan x="1050">汽轮机系统</tspan><tspan x="1050" dy="25">故障知识图谱</tspan></text><text x="470" y="532"><tspan x="470">任务参数子图</tspan><tspan x="470" dy="25">知识邻接矩阵</tspan></text><text x="770" y="532"><tspan x="770">KG-GCN</tspan><tspan x="770" dy="25">Mask预训练+冻结Encoder</tspan></text><text x="1050" y="532"><tspan x="1050">故障类别识别</tspan><tspan x="1050" dy="25">VHP代表性算例</tspan></text></g><g font-size="14"><text x="55" y="220">第二章：建立随运行边界变化的健康状态基准</text><text x="55" y="420">第三章：将机组结构与可追溯故障机理组织为领域知识图谱</text><text x="355" y="640">第四—五章：以知识拓扑约束多参数状态残差传播，并在半物理故障场景中完成诊断验证</text></g></g></svg>